<mxfile host="app.diagrams.net" modified="2024-02-08T11:49:02.371Z" agent="Mozilla/5.0 (X11; Linux x86_64) AppleWebKit/537.36 (KHTML, like Gecko) Chrome/120.0.0.0 Safari/537.36" version="23.1.2" etag="CCDKzCGOe-e9qpOZloQp" type="github">
  <diagram name="PÃ¡gina-1" id="aFR1B0L5Ubp3PP05JHru">
    <mxGraphModel>
      <root>
        <mxCell id="0" />
        <mxCell id="1" parent="0" />
      </root>
    </mxGraphModel>
  </diagram>
</mxfile>
